<?xml version="1.0" encoding="UTF-8" standalone="no"?>
<!DOCTYPE svg PUBLIC "-//W3C//DTD SVG 1.1//EN" "http://www.w3.org/Graphics/SVG/1.1/DTD/svg11.dtd">
<svg width="100%" height="100%" viewBox="0 0 8000 8000" version="1.1" xmlns="http://www.w3.org/2000/svg" xmlns:xlink="http://www.w3.org/1999/xlink" xml:space="preserve" xmlns:serif="http://www.serif.com/" style="fill-rule:evenodd;clip-rule:evenodd;stroke-linejoin:round;stroke-miterlimit:2;">
    <path d="M4000,-0c-1648.8,-0 -3000.8,1372.4 -3000.8,3046c0,1673.6 1352,3046 3000.8,3046c1648.8,-0 3000.8,-1372 3000.8,-3046c-0,-1673.6 -1352,-3046 -3000.8,-3046Zm-0,5154.8c-1154.4,-0 -2077.6,-937.2 -2077.6,-2108.8c0,-1171.6 923.2,-2108.8 2077.6,-2108.8c1154,-0 2077.6,937.2 2077.6,2108.8c-33.2,1171.6 -956.4,2108.8 -2077.6,2108.8Zm2670.8,669.6l-2670.8,1171.2l-2671.2,-1171.2l-461.6,836.8l3132.8,1338.8l3132.8,-1338.8l-462,-836.8Z" style="fill-rule:nonzero;"/>
    <style>
        path {
            fill: #000;
        }
        @media (prefers-color-scheme: dark) {
            path {
                fill: #fff;
            }
        }
    </style>
</svg>